<svg width="571" height="388" viewBox="0 0 571 388" fill="none" xmlns="http://www.w3.org/2000/svg">
<path d="M1.34954 29.4143H570.326V380.815C570.326 384.411 567.411 387.326 563.815 387.326H7.86109C4.26485 387.326 1.34954 384.411 1.34954 380.815V29.4143Z" fill="white" stroke="#3C64B1" stroke-width="1.34722"/>
<path opacity="0.1" d="M0.675926 28.7407H571V380.815C571 384.783 567.783 388 563.815 388H7.86109C3.89283 388 0.675926 384.783 0.675926 380.815V28.7407Z" fill="#3C64B1"/>
<path d="M7.86109 0.673611H563.815C567.411 0.673611 570.326 3.58894 570.326 7.18518V35.2523H1.34951V7.18519C1.34951 3.58894 4.26485 0.673611 7.86109 0.673611Z" fill="white" stroke="#3C64B1" stroke-width="1.34722"/>
<path fill-rule="evenodd" clip-rule="evenodd" d="M48.2778 22.4536C50.7579 22.4536 52.7685 20.4431 52.7685 17.9629C52.7685 15.4827 50.7579 13.4722 48.2778 13.4722C45.7976 13.4722 43.787 15.4827 43.787 17.9629C43.787 20.4431 45.7976 22.4536 48.2778 22.4536Z" fill="white" stroke="#3C64B1" stroke-width="1.34722"/>
<path fill-rule="evenodd" clip-rule="evenodd" d="M32.1111 22.4536C34.5913 22.4536 36.6019 20.4431 36.6019 17.9629C36.6019 15.4827 34.5913 13.4722 32.1111 13.4722C29.6309 13.4722 27.6204 15.4827 27.6204 17.9629C27.6204 20.4431 29.6309 22.4536 32.1111 22.4536Z" fill="white" stroke="#3C64B1" stroke-width="1.34722"/>
<path fill-rule="evenodd" clip-rule="evenodd" d="M15.9444 22.4536C18.4246 22.4536 20.4352 20.4431 20.4352 17.9629C20.4352 15.4827 18.4246 13.4722 15.9444 13.4722C13.4643 13.4722 11.4537 15.4827 11.4537 17.9629C11.4537 20.4431 13.4643 22.4536 15.9444 22.4536Z" fill="white" stroke="#3C64B1" stroke-width="1.34722"/>
</svg>
