<svg width="500" height="812" fill="none" xmlns="http://www.w3.org/2000/svg"><g clip-path="url(#clip0_309:60)"><g clip-path="url(#clip1_309:60)"><path fill="#C7BAD8" d="M-473 0H973.45v812H-473z"/><path d="M-95.46 0H970.554v812H-473.723l3.946-350.688 93.579-26.801c173.055 0 146.425-90.767 195.051-236.643C-115.191 0-153.525 82.683-95.46 0z" fill="#C7BAD8"/><path d="M-65.583 0H970.554v812H-473.723l3.946-350.688 93.579-26.801c173.055 0 146.425-90.767 195.051-236.643C-115.191 0-123.647 82.683-65.583 0z" fill="#C7B6D5"/><path d="M250.67 0h719.884v812H-473.723l3.946-350.688 284.12-26.801c173.055 0 236.669-42.028 279.046-189.885 14.142-49.34 76.668-128.87 76.668-128.87S236.013 68.427 250.67 0z" fill="url(#paint0_radial_309:60)"/><path d="M489.691 0h480.863v812H-473.723V459.601L.374 441.354c173.055 0 252.453-20.93 294.831-168.787 14.141-49.34 87.506-144.786 109.927-177.34 16.645-24.167 28.75-39.915 53.554-61.014C472.779 11.976 489.691 0 489.691 0z" fill="url(#paint1_radial_309:60)"/><path d="M489.692 0h480.862v812H-473.723V459.601s5.637-1.14 637.015-1.14c173.055 0 140.835-79.664 183.212-227.52 14.142-49.34 36.207-103.16 58.628-135.714 16.645-24.167 28.75-39.915 53.555-61.014C472.78 11.976 489.692 0 489.692 0z" fill="url(#paint2_linear_309:60)"/><path d="M650.919 0h319.635v812H-473.723V459.601s105.981 66.146 737.359 66.146c173.055 0 227.808-144.351 279.61-289.104C588.345 110.624 650.919 0 650.919 0z" fill="url(#paint3_linear_309:60)"/><g filter="url(#filter0_b_309:60)"><path d="M650.919 0h319.635v812H-473.723V459.601s77.046 9.915 708.424 9.915c173.056 0 256.743-88.12 308.545-232.873C588.345 110.624 650.919 0 650.919 0z" fill="#fff" fill-opacity=".01"/></g><path d="M818.91 0h151.644v812H-473.723V459.601S-273.599 583.34 357.779 583.34c173.055 0 295.799-183.575 350.076-339.284C755.209 83.823 818.91 0 818.91 0z" fill="url(#paint4_linear_309:60)"/><path d="M970.555 293.765v518.236H-473.722V459.669s768.928 185.858 817.409 185.858c93.839 0 19.461 10.026 138.114 3.421 31.822-1.772 85.558 12.354 181.521 8.551 89.338-3.54 236.203-167.044 307.233-363.734z" fill="url(#paint5_linear_309:60)"/><path d="M970.555 632.466v179.533H-473.722V459.771S-290.51 693.45 340.869 693.45c173.055 0 293.221-6.319 411.523-17.668 123.96-11.893 34.906-43.316 218.163-43.316z" fill="#8710DB"/><path d="M-128.514 0s5.635 24.52 25.359 56.452c12.3 19.914 9.017 24.359 21.979 33.644 10.013 7.172 20.82 7.634 31.558 15.396 23.67 17.107 25.923 38.775 84.532 65.575 25.36 11.597 44.508 65.961 71.007 108.343 26.498 42.382 50.076 76.347 79.703 138.499 16.755 35.15 36.266 96.754 70.734 156.987 46.766 81.725 117.61 110.205 210.232 124.77 83.404 13.115 162.253 6.572 251.341-23.379 174.699-58.734 251.904-224.454 251.904-224.454V812H-472.277V0h343.763z" fill="url(#paint6_linear_309:60)"/><path d="M-191.631 0s39.448 46.188 78.333 69.567c17.242 10.367 43.021 20.992 63.68 35.925 23.67 17.107 25.923 38.775 84.532 65.575 25.36 11.597 44.508 65.961 71.007 108.343 26.498 42.382 53.734 75.083 81.714 137.995 15.312 34.428 34.799 117.793 75.515 153.39 46.766 81.725 110.818 114.306 203.44 128.871 83.404 13.115 162.253 6.572 251.341-23.379 174.699-58.734 251.904-258.882 251.904-258.882V812H-472.277V0h280.646z" fill="url(#paint7_linear_309:60)"/><path d="M-294.196 0s87.349 29.652 154.975 103.781c35.433 38.841 88.15 38.065 146.521 72.418 55.228 32.503 126.234 137.995 169.627 222.958 34.687 67.916 65.019 144.376 97.115 211.828 34.656 72.835 72.342 135.407 147.242 172.144 58.987 28.931 163.885 16.326 257.762 16.326 206.258 0 290.789-161.403 290.789-161.403V812H-472.277V0h178.081z" fill="url(#paint8_linear_309:60)"/><path d="M-472.278 12.27s57.368 19.768 97.519 79.666c45.096 67.275 171.23 77.846 255.356 100.342 98.08 26.227 169.61 86.939 257.046 206.954 126.268 173.317 180.811 254.044 248.591 346.634C429.639 805.159 660.191 812 660.191 812H-472.278V12.27z" fill="url(#paint9_linear_309:60)"/><path d="M-472.278 200.933s68.856-10.067 121.196 5.705c73.845 22.252 110.543 68.395 174.748 85.584 74.857 20.04 124.206 28.73 226.61 75.884 131.343 60.479 169.934 173.186 258.176 294.979C395.263 782.902 423.448 812 423.448 812h-895.726V200.933z" fill="url(#paint10_linear_309:60)"/><path d="M-472.278 323.358s85.222 63.387 217.44 96.931c63.579 16.13 128.066 10.657 218.003 41.623 137.449 47.325 151.532 149.387 250.112 225.791 76.443 59.246 179.135 124.299 179.135 124.299h-864.69V323.358z" fill="url(#paint11_linear_309:60)"/><path d="M-472.278 515.348s163.192 79.166 270.715 127.913c214.898 97.427 301.654 168.737 301.654 168.737h-572.369v-296.65z" fill="url(#paint12_linear_309:60)"/><g filter="url(#filter1_b_309:60)"><path d="M226.402 504.881s100.008 31.597 141.107 27.067C469.54 520.7 587.125 462.48 683.287 426.568 813.18 378.06 969.833 82.28 969.833 82.28v729.717H638.176s-54.768-2.955-109.349-12.27c-43.458-7.416-85.698-17.52-113.32-31.758-35.006-18.044-76.869-87.335-76.869-87.335l-71.817-89.861s-27.066-50.886-40.419-85.892z" fill="url(#paint13_linear_309:60)" fill-opacity=".01"/></g><g filter="url(#filter2_b_309:60)"><path d="M259.243 576.34c-16.258-30.089-25.984-55.216-25.984-55.216s47.867 38.879 128.838 29.953c102.031-11.247 258.855-101.518 317.582-239.991C713.963 230.247 746.804 97.801 820.426 0h149.408v635.164s-38.017 76.517-93.471 111.515C803.389 792.734 638.177 812 638.177 812s-54.768-2.956-109.35-12.27c-43.458-7.416-85.697-17.52-113.319-31.758-35.006-18.045-76.869-87.336-76.869-87.336l-49.803-62.794s-15.559-15.531-29.593-41.502z" fill="#fff" fill-opacity=".01"/></g><path opacity=".2" d="M729.06 647.311c-55.444-3.845-60.166 3.655-86.506-5.999-21.072-7.724-38.699-10.838-44.879-11.429-24.289-1.685-46.13 5.117-68.996 3.531-17.595-1.22-31.752 4.647-35.662 4.376-3.91-.271-12.506 10.385-37.92 8.622-25.415-1.762-73.329 2.253-87.434.296 0 0 282.823 64.253 361.397.603z" fill="url(#paint14_linear_309:60)"/><path d="M271.152 660.976c76.207 0 81.955 10.707 118.902 0 29.558-8.566 53.965-11.153 62.474-11.376h55.757c4.702 3.792 18.943 11.376 38.29 11.376 24.184 0 42.993 9.368 48.367 9.368 5.374 0 16.122 15.392 51.054 15.392s100.093 10.038 119.574 8.699c0 0-392.974 61.061-494.418-33.459z" fill="url(#paint15_linear_309:60)"/><path opacity=".2" d="M255.996 611.371c46.781.001 91.23-5.603 137.422-6.518 24.659 0 47.47 6.518 71.256 6.518 26.54 0 49.312 14.189 75.328 14.189 26.466 0 75.837 5.752 90.597 4.985 0 0-297.742 34.99-374.603-19.174z" fill="url(#paint16_linear_309:60)"/></g></g><defs><linearGradient id="paint2_linear_309:60" x1="594.147" y1="20.931" x2="49.565" y2="621.09" gradientUnits="userSpaceOnUse"><stop stop-color="#DFAECC"/><stop offset=".332" stop-color="#D589B4"/><stop offset=".729" stop-color="#D68BB6"/><stop offset="1" stop-color="#DB9CC2" stop-opacity="0"/></linearGradient><linearGradient id="paint3_linear_309:60" x1="758.351" y1="20.21" x2="182.373" y2="767.972" gradientUnits="userSpaceOnUse"><stop stop-color="#D794B9"/><stop offset=".272" stop-color="#D783B1"/><stop offset=".702" stop-color="#D46AA6" stop-opacity=".41"/><stop offset="1" stop-color="#D98FB7" stop-opacity="0"/></linearGradient><linearGradient id="paint4_linear_309:60" x1="852.182" y1="0" x2="645.032" y2="812" gradientUnits="userSpaceOnUse"><stop stop-color="#D66CA2"/><stop offset=".286" stop-color="#D6619B"/><stop offset=".699" stop-color="#CE50A8"/><stop offset="1" stop-color="#C02DC8"/></linearGradient><linearGradient id="paint5_linear_309:60" x1="669.935" y1="335.989" x2="516.557" y2="668.367" gradientUnits="userSpaceOnUse"><stop stop-color="#CD53A5"/><stop offset="1" stop-color="#8B12D9"/></linearGradient><linearGradient id="paint6_linear_309:60" x1="-59.42" y1="0" x2="302.191" y2="849.893" gradientUnits="userSpaceOnUse"><stop stop-color="#D477B8"/><stop offset=".482" stop-color="#8A10D7"/><stop offset=".803" stop-color="#8710D7"/><stop offset=".995" stop-color="#520DCA"/></linearGradient><linearGradient id="paint7_linear_309:60" x1="-59.42" y1="0" x2="336.475" y2="683.163" gradientUnits="userSpaceOnUse"><stop stop-color="#D748A2"/><stop offset=".56" stop-color="#C826C3"/><stop offset=".746" stop-color="#9107DF"/><stop offset="1" stop-color="#B824E2" stop-opacity=".62"/></linearGradient><linearGradient id="paint8_linear_309:60" x1="91.793" y1="82.283" x2="292.086" y2="696.876" gradientUnits="userSpaceOnUse"><stop stop-color="#CB34AB"/><stop offset=".181" stop-color="#CC30B2"/><stop offset=".736" stop-color="#BF19CD"/><stop offset="1" stop-color="#510BC9"/></linearGradient><linearGradient id="paint9_linear_309:60" x1="93.956" y1="12.271" x2="93.956" y2="812" gradientUnits="userSpaceOnUse"><stop offset=".002" stop-color="#B62DAF"/><stop offset=".453" stop-color="#A41BC7"/><stop offset="1" stop-color="#8710D7"/></linearGradient><linearGradient id="paint10_linear_309:60" x1="-212.077" y1="197.768" x2="379.059" y2="812" gradientUnits="userSpaceOnUse"><stop stop-color="#A11CBD"/><stop offset=".414" stop-color="#A51EC1"/><stop offset="1" stop-color="#8710DB"/></linearGradient><linearGradient id="paint11_linear_309:60" x1="0" y1="568" x2="382" y2="812" gradientUnits="userSpaceOnUse"><stop stop-color="#7012C5"/><stop offset="1" stop-color="#3447EE"/></linearGradient><linearGradient id="paint12_linear_309:60" x1="-434.385" y1="515.348" x2="-186.093" y2="811.998" gradientUnits="userSpaceOnUse"><stop stop-color="#4E12B0"/><stop offset="1" stop-color="#3C12A4"/></linearGradient><linearGradient id="paint13_linear_309:60" x1="498.873" y1="496.942" x2="230.732" y2="584.277" gradientUnits="userSpaceOnUse"><stop stop-color="#fff"/><stop offset="1" stop-color="#fff" stop-opacity="0"/></linearGradient><linearGradient id="paint14_linear_309:60" x1="553.056" y1="618.106" x2="553.835" y2="659.039" gradientUnits="userSpaceOnUse"><stop stop-color="#8D13D7"/><stop offset="1" stop-color="#961FDB" stop-opacity="0"/></linearGradient><linearGradient id="paint15_linear_309:60" x1="527.485" y1="649.6" x2="523.031" y2="709.476" gradientUnits="userSpaceOnUse"><stop stop-color="#8D13D7"/><stop offset="1" stop-color="#961FDB" stop-opacity="0"/></linearGradient><linearGradient id="paint16_linear_309:60" x1="450.21" y1="604.853" x2="452.036" y2="632.565" gradientUnits="userSpaceOnUse"><stop stop-color="#8D13D7"/><stop offset="1" stop-color="#961FDB" stop-opacity="0"/></linearGradient><filter id="filter0_b_309:60" x="-517.03" y="-43.307" width="1530.89" height="898.613" filterUnits="userSpaceOnUse" color-interpolation-filters="sRGB"><feFlood flood-opacity="0" result="BackgroundImageFix"/><feGaussianBlur in="BackgroundImage" stdDeviation="21.653"/><feComposite in2="SourceAlpha" operator="in" result="effect1_backgroundBlur_309:60"/><feBlend in="SourceGraphic" in2="effect1_backgroundBlur_309:60" result="shape"/></filter><filter id="filter1_b_309:60" x="169.381" y="25.26" width="857.472" height="843.758" filterUnits="userSpaceOnUse" color-interpolation-filters="sRGB"><feFlood flood-opacity="0" result="BackgroundImageFix"/><feGaussianBlur in="BackgroundImage" stdDeviation="28.51"/><feComposite in2="SourceAlpha" operator="in" result="effect1_backgroundBlur_309:60"/><feBlend in="SourceGraphic" in2="effect1_backgroundBlur_309:60" result="shape"/></filter><filter id="filter2_b_309:60" x="169.743" y="-63.517" width="863.607" height="939.033" filterUnits="userSpaceOnUse" color-interpolation-filters="sRGB"><feFlood flood-opacity="0" result="BackgroundImageFix"/><feGaussianBlur in="BackgroundImage" stdDeviation="31.758"/><feComposite in2="SourceAlpha" operator="in" result="effect1_backgroundBlur_309:60"/><feBlend in="SourceGraphic" in2="effect1_backgroundBlur_309:60" result="shape"/></filter><radialGradient id="paint0_radial_309:60" cx="0" cy="0" r="1" gradientUnits="userSpaceOnUse" gradientTransform="matrix(-106.09984 547.46865 -973.76487 -188.71638 248.054 49.08)"><stop stop-color="#CEB5D1"/><stop offset="1" stop-color="#D19BCF"/></radialGradient><radialGradient id="paint1_radial_309:60" cx="0" cy="0" r="1" gradientUnits="userSpaceOnUse" gradientTransform="rotate(93.124 91.898 202.696) scale(430.458 765.642)"><stop stop-color="#D6A4CC"/><stop offset=".441" stop-color="#D0ACD1"/><stop offset="1" stop-color="#D188C2"/></radialGradient><clipPath id="clip0_309:60"><rect width="500" height="812" rx="17" fill="#fff"/></clipPath><clipPath id="clip1_309:60"><path fill="#fff" transform="translate(-473)" d="M0 0h1446.45v812H0z"/></clipPath></defs></svg>